{"title":"Bhindi Bazaar [Hindi 2011] SCAM RIP Xvid Demon@mastitorrents","uid":6494535,"size":521136417,"categoryP":"video","categoryS":"movies","magnet":"?xt=urn:btih:d66569b75d4d702ea0132e265e7a8df216460855&amp;dn=Bhindi+Bazaar+%5BHindi+2011%5D+SCAM+RIP+Xvid+Demon%40mastitorrents&amp;tr=udp%3A%2F%2Ftracker.openbittorrent.com%3A80&amp;tr=udp%3A%2F%2Fopen.demonii.com%3A1337&amp;tr=udp%3A%2F%2Ftracker.coppersurfer.tk%3A6969&amp;tr=udp%3A%2F%2Fexodus.desync.com%3A6969","seeders":1,"leechers":0,"uploader":"tdkdemon","files":-1,"time":1309012631,"description":"8b    d8    db    .dP&quot;Y8 888888 88 888888  dP&quot;Yb  88&quot;&quot;Yb 88&quot;&quot;Yb 888888 88b 88 888888 .dP&quot;Y8 \n88b  d88   dPYb   `Ybo.&quot;   88   88   88   dP   Yb 88__dP 88__dP 88__   88Yb88   88   `Ybo.&quot; \n88YbdP88  dP__Yb  o.`Y8b   88   88   88   Yb   dP 88&quot;Yb  88&quot;Yb  88&quot;&quot;   88 Y88   88   o.`Y8b \n88 YY 88 dP&quot;&quot;&quot;&quot;Yb 8bodP'   88   88   88    YbodP  88  Yb 88  Yb 888888 88  Y8   88   8bodP' \n\n\n\n\n\n\nMASTI TORRENTS RELEASERS [ MTR ]\n\n    Where Quality Matters!\n\n\n\n\n\n\n\n\n\n\n\ndescription:\n\nBhindi Bazaar Inc\n\nLanguage: Hindi\n\nCritic Rating: (2/5)\n\nRelease Year: 2011\n\nCast: Kay Kay Menon, Prashant Narayan, Piyush Mishra, Pawan Malhotra, Shilpa Shukla, Deepti Naval, Shwetabh Varma, Vedita gautam, Caterina Lopez, Gautam Sharma, Shweta Verma,Vedita Pratap Singh.\n\nProducer: Karana Arora\n\nDirector: Ankush Bhatt\n\nMusic Director: Sandeep-Surya\n\n\n\nSynopsis\n\nA realistic gripping account of politics set among the dark underbelly of Mumbai pickpockets in the infamous area of &quot;Bhindi Baazaar&quot;....\n\nLike every other commercial organization here too are employees and their designations. They too have field work, administration structure and skill-set, alongside they also have business rivalry; this is a company called Bhin...\n\n\n\n\nFormat                           : AVI\nFormat/Info                      : Audio Video Interleave\nFile size                        : 471 MiB\nDuration                         : 1h 27mn\nOverall bit rate                 : 756 Kbps\nWriting application              : Lavf52.39.1\nWriting library                  : VirtualDub build 32842/release\n\nVideo\nID                               : 0\nFormat                           : MPEG-4 Visual\nFormat profile                   : Advanced Simple@L5\nFormat settings, BVOP            : 2\nFormat settings, QPel            : No\nFormat settings, GMC             : No warppoints\nFormat settings, Matrix          : Default (H.263)\nMuxing mode                      : Packed bitstream\nCodec ID                         : XVID\nCodec ID/Hint                    : XviD\nDuration                         : 1h 27mn\nBit rate                         : 679 Kbps\nWidth                            : 620 pixels\nHeight                           : 270 pixels\nDisplay aspect ratio             : 2.25:1\nFrame rate                       : 25.000 fps\nColor space                      : YUV\nChroma subsampling               : 4:2:0\nBit depth                        : 8 bits\nScan type                        : Progressive\nCompression mode                 : Lossy\nBits/(Pixel*Frame)               : 0.162\nStream size                      : 423 MiB (90%)\nWriting library                  : XviD 63\n\nAudio\nID                               : 1\nFormat                           : MPEG Audio\nFormat version                   : Version 1\nFormat profile                   : Layer 3\nMode                             : Joint stereo\nMode extension                   : MS Stereo\nCodec ID                         : 55\nCodec ID/Hint                    : MP3\nDuration                         : 1h 27mn\nBit rate mode                    : Constant\nBit rate                         : 64.0 Kbps\nChannel(s)                       : 2 channels\nSampling rate                    : 48.0 KHz\nCompression mode                 : Lossy\nStream size                      : 39.9 MiB (8%)\nAlignment                        : Aligned on interleaves\nInterleave, duration             : 24 ms (0.60 video frame)\nInterleave, preload duration     : 504 ms\n\n\n\n\n\nScreens/Covers:\n &lt;a href=&quot;\nhttp://bollywoodreleases.info/images/22321225712874224263.png&quot; rel=&quot;nofollow&quot; target=&quot;_NEW&quot;&gt;\nhttp://bollywoodreleases.info/images/22321225712874224263.png&lt;/a&gt; &lt;a href=&quot;\nhttp://bollywoodreleases.info/images/60324022409556472303.png&quot; rel=&quot;nofollow&quot; target=&quot;_NEW&quot;&gt;\nhttp://bollywoodreleases.info/images/60324022409556472303.png&lt;/a&gt; &lt;a href=&quot;\nhttp://bollywoodreleases.info/images/18991454443757695478.png&quot; rel=&quot;nofollow&quot; target=&quot;_NEW&quot;&gt;\nhttp://bollywoodreleases.info/images/18991454443757695478.png&lt;/a&gt; &lt;a href=&quot;\nhttp://bollywoodreleases.info/images/05573520308899339590.png&quot; rel=&quot;nofollow&quot; target=&quot;_NEW&quot;&gt;\nhttp://bollywoodreleases.info/images/05573520308899339590.png&lt;/a&gt; &lt;a href=&quot;\nhttp://bollywoodreleases.info/images/33462465909828876135.png&quot; rel=&quot;nofollow&quot; target=&quot;_NEW&quot;&gt;\nhttp://bollywoodreleases.info/images/33462465909828876135.png&lt;/a&gt;\n\n\n\n\n\n\n****check out my other releases****\n\n &lt;a href=&quot;\nhttp://thepiratebay.se/user/tdkdemon/&quot; rel=&quot;nofollow&quot; target=&quot;_NEW&quot;&gt;\nhttp://thepiratebay.se/user/tdkdemon/&lt;/a&gt;\n\n\n\n\n\n\n\n\n\n\n\n\n\n    &lt;&lt;&lt;&lt;&lt;&lt;&lt;SUPERFAST RELEASES BROUGHT TO YOU BY&gt;&gt;&gt;&gt;&gt;&gt;\n\n          \n\n\n                                  Masti Torrent Releasers [ MTR ]\n\n\n             8888b.  888888 8b    d8  dP&quot;Yb  88b 88     88888 8b    d8 888888 88&quot;&quot;Yb 88888 \n              8I  Yb 88__   88b  d88 dP   Yb 88Yb88     88    88b  d88   88   88__dP    88 \n              8I  dY 88&quot;&quot;   88YbdP88 Yb   dP 88 Y88     88    88YbdP88   88   88&quot;Yb     88 \n             8888Y&quot;  888888 88 YY 88  YbodP  88  Y8     88888 88 YY 88   88   88  Yb 88888 \n","torrent":{"xt":"urn:btih:d66569b75d4d702ea0132e265e7a8df216460855","amp;dn":"Bhindi+Bazaar+%5BHindi+2011%5D+SCAM+RIP+Xvid+Demon%40mastitorrents","amp;tr":["udp%3A%2F%2Ftracker.openbittorrent.com%3A80","udp%3A%2F%2Fopen.demonii.com%3A1337","udp%3A%2F%2Ftracker.coppersurfer.tk%3A6969","udp%3A%2F%2Fexodus.desync.com%3A6969"],"infoHash":"d66569b75d4d702ea0132e265e7a8df216460855","infoHashBuffer":{"type":"Buffer","data":[214,101,105,183,93,77,112,46,160,19,46,38,94,122,141,242,22,70,8,85]},"announce":[],"urlList":[]}}